<mxfile host="app.diagrams.net" modified="2021-12-25T05:48:34.832Z" agent="5.0 (Macintosh)" etag="fGuCCctcaXUIUPmXQ4Rp" version="16.1.0" type="github">
  <diagram id="C5RBs43oDa-KdzZeNtuy" name="Page-1">
    <mxGraphModel dx="1505" dy="867" grid="1" gridSize="10" guides="1" tooltips="1" connect="1" arrows="1" fold="1" page="1" pageScale="1" pageWidth="827" pageHeight="1169" math="0" shadow="0">
      <root>
        <mxCell id="WIyWlLk6GJQsqaUBKTNV-0" />
        <mxCell id="WIyWlLk6GJQsqaUBKTNV-1" parent="WIyWlLk6GJQsqaUBKTNV-0" />
        <mxCell id="WIyWlLk6GJQsqaUBKTNV-3" value="开始" style="rounded=1;whiteSpace=wrap;html=1;fontSize=12;glass=0;strokeWidth=1;shadow=0;" parent="WIyWlLk6GJQsqaUBKTNV-1" vertex="1">
          <mxGeometry x="373" y="167" width="120" height="40" as="geometry" />
        </mxCell>
        <mxCell id="HDN6RNjvwfaax_aphI6V-1" value="结束" style="rounded=1;whiteSpace=wrap;html=1;fontSize=12;glass=0;strokeWidth=1;shadow=0;" vertex="1" parent="WIyWlLk6GJQsqaUBKTNV-1">
          <mxGeometry x="400" y="1120" width="120" height="40" as="geometry" />
        </mxCell>
        <mxCell id="HDN6RNjvwfaax_aphI6V-2" value="N大于0吗？" style="rhombus;whiteSpace=wrap;html=1;" vertex="1" parent="WIyWlLk6GJQsqaUBKTNV-1">
          <mxGeometry x="393" y="317" width="80" height="80" as="geometry" />
        </mxCell>
        <mxCell id="HDN6RNjvwfaax_aphI6V-3" value="" style="endArrow=classic;html=1;rounded=0;exitX=0.5;exitY=1;exitDx=0;exitDy=0;entryX=0.5;entryY=0;entryDx=0;entryDy=0;" edge="1" parent="WIyWlLk6GJQsqaUBKTNV-1" source="WIyWlLk6GJQsqaUBKTNV-3" target="HDN6RNjvwfaax_aphI6V-14">
          <mxGeometry width="50" height="50" relative="1" as="geometry">
            <mxPoint x="603" y="567" as="sourcePoint" />
            <mxPoint x="653" y="517" as="targetPoint" />
          </mxGeometry>
        </mxCell>
        <mxCell id="HDN6RNjvwfaax_aphI6V-4" value="" style="endArrow=classic;html=1;rounded=0;exitX=1;exitY=0.5;exitDx=0;exitDy=0;entryX=1;entryY=0.75;entryDx=0;entryDy=0;" edge="1" parent="WIyWlLk6GJQsqaUBKTNV-1" source="HDN6RNjvwfaax_aphI6V-2" target="HDN6RNjvwfaax_aphI6V-1">
          <mxGeometry width="50" height="50" relative="1" as="geometry">
            <mxPoint x="603" y="567" as="sourcePoint" />
            <mxPoint x="653" y="517" as="targetPoint" />
            <Array as="points">
              <mxPoint x="720" y="360" />
              <mxPoint x="730" y="720" />
              <mxPoint x="740" y="1047" />
            </Array>
          </mxGeometry>
        </mxCell>
        <mxCell id="HDN6RNjvwfaax_aphI6V-6" value="N" style="edgeLabel;html=1;align=center;verticalAlign=middle;resizable=0;points=[];" vertex="1" connectable="0" parent="HDN6RNjvwfaax_aphI6V-4">
          <mxGeometry x="-0.8697" y="-1" relative="1" as="geometry">
            <mxPoint as="offset" />
          </mxGeometry>
        </mxCell>
        <mxCell id="HDN6RNjvwfaax_aphI6V-5" value="" style="endArrow=classic;html=1;rounded=0;exitX=0;exitY=0.5;exitDx=0;exitDy=0;entryX=0.5;entryY=0;entryDx=0;entryDy=0;" edge="1" parent="WIyWlLk6GJQsqaUBKTNV-1" source="HDN6RNjvwfaax_aphI6V-2" target="HDN6RNjvwfaax_aphI6V-16">
          <mxGeometry width="50" height="50" relative="1" as="geometry">
            <mxPoint x="603" y="567" as="sourcePoint" />
            <mxPoint x="293" y="467" as="targetPoint" />
            <Array as="points">
              <mxPoint x="300" y="357" />
            </Array>
          </mxGeometry>
        </mxCell>
        <mxCell id="HDN6RNjvwfaax_aphI6V-7" value="Y" style="edgeLabel;html=1;align=center;verticalAlign=middle;resizable=0;points=[];" vertex="1" connectable="0" parent="HDN6RNjvwfaax_aphI6V-5">
          <mxGeometry x="-0.6222" y="1" relative="1" as="geometry">
            <mxPoint as="offset" />
          </mxGeometry>
        </mxCell>
        <mxCell id="HDN6RNjvwfaax_aphI6V-9" value="" style="endArrow=classic;html=1;rounded=0;exitX=0;exitY=0.5;exitDx=0;exitDy=0;entryX=0.5;entryY=0;entryDx=0;entryDy=0;" edge="1" parent="WIyWlLk6GJQsqaUBKTNV-1" source="HDN6RNjvwfaax_aphI6V-17" target="HDN6RNjvwfaax_aphI6V-19">
          <mxGeometry width="50" height="50" relative="1" as="geometry">
            <mxPoint x="253" y="507" as="sourcePoint" />
            <mxPoint x="70" y="567" as="targetPoint" />
            <Array as="points">
              <mxPoint x="130" y="610" />
            </Array>
          </mxGeometry>
        </mxCell>
        <mxCell id="HDN6RNjvwfaax_aphI6V-12" value="Y" style="edgeLabel;html=1;align=center;verticalAlign=middle;resizable=0;points=[];" vertex="1" connectable="0" parent="HDN6RNjvwfaax_aphI6V-9">
          <mxGeometry x="-0.317" y="2" relative="1" as="geometry">
            <mxPoint as="offset" />
          </mxGeometry>
        </mxCell>
        <mxCell id="HDN6RNjvwfaax_aphI6V-10" value="" style="endArrow=classic;html=1;rounded=0;exitX=1;exitY=0.5;exitDx=0;exitDy=0;entryX=0.5;entryY=0;entryDx=0;entryDy=0;" edge="1" parent="WIyWlLk6GJQsqaUBKTNV-1" source="HDN6RNjvwfaax_aphI6V-17" target="HDN6RNjvwfaax_aphI6V-22">
          <mxGeometry width="50" height="50" relative="1" as="geometry">
            <mxPoint x="333" y="507" as="sourcePoint" />
            <mxPoint x="420" y="730" as="targetPoint" />
            <Array as="points">
              <mxPoint x="453" y="610" />
            </Array>
          </mxGeometry>
        </mxCell>
        <mxCell id="HDN6RNjvwfaax_aphI6V-11" value="N" style="edgeLabel;html=1;align=center;verticalAlign=middle;resizable=0;points=[];" vertex="1" connectable="0" parent="HDN6RNjvwfaax_aphI6V-10">
          <mxGeometry x="-0.1337" y="1" relative="1" as="geometry">
            <mxPoint as="offset" />
          </mxGeometry>
        </mxCell>
        <mxCell id="HDN6RNjvwfaax_aphI6V-14" value="初始化maxNum为-1" style="rounded=0;whiteSpace=wrap;html=1;" vertex="1" parent="WIyWlLk6GJQsqaUBKTNV-1">
          <mxGeometry x="373" y="237" width="120" height="40" as="geometry" />
        </mxCell>
        <mxCell id="HDN6RNjvwfaax_aphI6V-15" value="" style="endArrow=classic;html=1;rounded=0;entryX=0.5;entryY=0;entryDx=0;entryDy=0;exitX=0.5;exitY=1;exitDx=0;exitDy=0;" edge="1" parent="WIyWlLk6GJQsqaUBKTNV-1" source="HDN6RNjvwfaax_aphI6V-14" target="HDN6RNjvwfaax_aphI6V-2">
          <mxGeometry width="50" height="50" relative="1" as="geometry">
            <mxPoint x="430" y="290" as="sourcePoint" />
            <mxPoint x="490" y="232" as="targetPoint" />
          </mxGeometry>
        </mxCell>
        <mxCell id="HDN6RNjvwfaax_aphI6V-16" value="初始化循环索引i为0" style="rounded=0;whiteSpace=wrap;html=1;" vertex="1" parent="WIyWlLk6GJQsqaUBKTNV-1">
          <mxGeometry x="240" y="470" width="120" height="60" as="geometry" />
        </mxCell>
        <mxCell id="HDN6RNjvwfaax_aphI6V-17" value="i大于N吗？" style="rhombus;whiteSpace=wrap;html=1;" vertex="1" parent="WIyWlLk6GJQsqaUBKTNV-1">
          <mxGeometry x="260" y="570" width="80" height="80" as="geometry" />
        </mxCell>
        <mxCell id="HDN6RNjvwfaax_aphI6V-18" value="" style="endArrow=classic;html=1;rounded=0;exitX=0.5;exitY=1;exitDx=0;exitDy=0;entryX=0.5;entryY=0;entryDx=0;entryDy=0;" edge="1" parent="WIyWlLk6GJQsqaUBKTNV-1" source="HDN6RNjvwfaax_aphI6V-16" target="HDN6RNjvwfaax_aphI6V-17">
          <mxGeometry width="50" height="50" relative="1" as="geometry">
            <mxPoint x="180" y="590" as="sourcePoint" />
            <mxPoint x="230" y="540" as="targetPoint" />
          </mxGeometry>
        </mxCell>
        <mxCell id="HDN6RNjvwfaax_aphI6V-19" value="返回maxNum" style="rounded=0;whiteSpace=wrap;html=1;" vertex="1" parent="WIyWlLk6GJQsqaUBKTNV-1">
          <mxGeometry x="70" y="730" width="120" height="60" as="geometry" />
        </mxCell>
        <mxCell id="HDN6RNjvwfaax_aphI6V-21" value="" style="endArrow=classic;html=1;rounded=0;exitX=0.5;exitY=1;exitDx=0;exitDy=0;entryX=0;entryY=0.5;entryDx=0;entryDy=0;" edge="1" parent="WIyWlLk6GJQsqaUBKTNV-1" source="HDN6RNjvwfaax_aphI6V-19" target="HDN6RNjvwfaax_aphI6V-1">
          <mxGeometry width="50" height="50" relative="1" as="geometry">
            <mxPoint x="180" y="710" as="sourcePoint" />
            <mxPoint x="130" y="1010" as="targetPoint" />
            <Array as="points">
              <mxPoint x="130" y="1037" />
            </Array>
          </mxGeometry>
        </mxCell>
        <mxCell id="HDN6RNjvwfaax_aphI6V-22" value="第i个数大于maxNum？" style="rhombus;whiteSpace=wrap;html=1;" vertex="1" parent="WIyWlLk6GJQsqaUBKTNV-1">
          <mxGeometry x="413" y="730" width="80" height="80" as="geometry" />
        </mxCell>
        <mxCell id="HDN6RNjvwfaax_aphI6V-23" value="" style="endArrow=classic;html=1;rounded=0;exitX=0;exitY=0.5;exitDx=0;exitDy=0;entryX=0.5;entryY=0;entryDx=0;entryDy=0;" edge="1" parent="WIyWlLk6GJQsqaUBKTNV-1" source="HDN6RNjvwfaax_aphI6V-22" target="HDN6RNjvwfaax_aphI6V-25">
          <mxGeometry width="50" height="50" relative="1" as="geometry">
            <mxPoint x="180" y="710" as="sourcePoint" />
            <mxPoint x="230" y="660" as="targetPoint" />
            <Array as="points">
              <mxPoint x="340" y="770" />
            </Array>
          </mxGeometry>
        </mxCell>
        <mxCell id="HDN6RNjvwfaax_aphI6V-24" value="Y" style="edgeLabel;html=1;align=center;verticalAlign=middle;resizable=0;points=[];" vertex="1" connectable="0" parent="HDN6RNjvwfaax_aphI6V-23">
          <mxGeometry x="-0.3912" y="1" relative="1" as="geometry">
            <mxPoint as="offset" />
          </mxGeometry>
        </mxCell>
        <mxCell id="HDN6RNjvwfaax_aphI6V-25" value="把第i个数字赋值给maxNum" style="rounded=0;whiteSpace=wrap;html=1;" vertex="1" parent="WIyWlLk6GJQsqaUBKTNV-1">
          <mxGeometry x="280" y="830" width="120" height="60" as="geometry" />
        </mxCell>
        <mxCell id="HDN6RNjvwfaax_aphI6V-26" value="i自增" style="rounded=0;whiteSpace=wrap;html=1;" vertex="1" parent="WIyWlLk6GJQsqaUBKTNV-1">
          <mxGeometry x="480" y="940" width="120" height="60" as="geometry" />
        </mxCell>
        <mxCell id="HDN6RNjvwfaax_aphI6V-27" value="" style="endArrow=classic;html=1;rounded=0;exitX=1;exitY=0.5;exitDx=0;exitDy=0;entryX=0.5;entryY=0;entryDx=0;entryDy=0;" edge="1" parent="WIyWlLk6GJQsqaUBKTNV-1" source="HDN6RNjvwfaax_aphI6V-22" target="HDN6RNjvwfaax_aphI6V-26">
          <mxGeometry width="50" height="50" relative="1" as="geometry">
            <mxPoint x="180" y="770" as="sourcePoint" />
            <mxPoint x="660" y="770" as="targetPoint" />
            <Array as="points">
              <mxPoint x="540" y="770" />
            </Array>
          </mxGeometry>
        </mxCell>
        <mxCell id="HDN6RNjvwfaax_aphI6V-29" value="N" style="edgeLabel;html=1;align=center;verticalAlign=middle;resizable=0;points=[];" vertex="1" connectable="0" parent="HDN6RNjvwfaax_aphI6V-27">
          <mxGeometry x="-0.7419" y="-3" relative="1" as="geometry">
            <mxPoint y="-2" as="offset" />
          </mxGeometry>
        </mxCell>
        <mxCell id="HDN6RNjvwfaax_aphI6V-28" value="" style="endArrow=classic;html=1;rounded=0;exitX=0.5;exitY=1;exitDx=0;exitDy=0;entryX=0;entryY=0.5;entryDx=0;entryDy=0;" edge="1" parent="WIyWlLk6GJQsqaUBKTNV-1" source="HDN6RNjvwfaax_aphI6V-25" target="HDN6RNjvwfaax_aphI6V-26">
          <mxGeometry width="50" height="50" relative="1" as="geometry">
            <mxPoint x="420" y="880" as="sourcePoint" />
            <mxPoint x="290" y="970" as="targetPoint" />
            <Array as="points">
              <mxPoint x="340" y="970" />
            </Array>
          </mxGeometry>
        </mxCell>
      </root>
    </mxGraphModel>
  </diagram>
</mxfile>
